# xmcd CD database file
#
# Track frame offsets:
#	150
#	19517
#	35284
#	52710
#	70673
#	90170
#	111158
#	126754
#	145563
#	162920
#	180970
#	196067
#
# Disc length: 2807 seconds
#
# Revision: 0
# Processed by: cddbd v1.5.2PL0 Copyright (c) Steve Scherf et al.
# Submitted via: CDex 1.70beta2
#
DISCID=810af50c
DTITLE=Melanie Mason - Lonesome Is I
DYEAR=2004
DGENRE=Blues
TTITLE0=Preachin' Blues (Up Jumped the Devil)
TTITLE1=Joe Turner Killed A Man
TTITLE2=Statesboro Blues
TTITLE3=Prodigal Son
TTITLE4=Ease Up
TTITLE5=Make Me a Pallet On the Floor
TTITLE6=Come On In My Kitchen
TTITLE7=Stones In My Passway
TTITLE8=Sliding Delta
TTITLE9=Nobody Cares For Me
TTITLE10=Sweet Home Chicago
TTITLE11=Lonesome Lonesome Gal
EXTD=YEAR: 2004
EXTT0=
EXTT1=
EXTT2=
EXTT3=
EXTT4=
EXTT5=
EXTT6=
EXTT7=
EXTT8=
EXTT9=
EXTT10=
EXTT11=
PLAYORDER=
